<mxfile host="Electron" agent="Mozilla/5.0 (Windows NT 10.0; Win64; x64) AppleWebKit/537.36 (KHTML, like Gecko) draw.io/24.7.17 Chrome/128.0.6613.36 Electron/32.0.1 Safari/537.36" version="24.7.17">
  <diagram name="Страница — 1" id="6ONLlCO0qa6ZxsD3FlzG">
    <mxGraphModel dx="1050" dy="629" grid="1" gridSize="10" guides="1" tooltips="1" connect="1" arrows="1" fold="1" page="1" pageScale="1" pageWidth="827" pageHeight="1169" math="0" shadow="0">
      <root>
        <mxCell id="0" />
        <mxCell id="1" parent="0" />
        <mxCell id="T_ZBZxhFnCgOZAEswiyo-8" value="" style="edgeStyle=orthogonalEdgeStyle;rounded=0;orthogonalLoop=1;jettySize=auto;html=1;" edge="1" parent="1" source="T_ZBZxhFnCgOZAEswiyo-1" target="T_ZBZxhFnCgOZAEswiyo-2">
          <mxGeometry relative="1" as="geometry" />
        </mxCell>
        <mxCell id="T_ZBZxhFnCgOZAEswiyo-1" value="Начало" style="ellipse;whiteSpace=wrap;html=1;fontFamily=Times New Roman;fontSize=14;" vertex="1" parent="1">
          <mxGeometry x="274" y="30" width="279" height="110" as="geometry" />
        </mxCell>
        <mxCell id="T_ZBZxhFnCgOZAEswiyo-9" value="" style="edgeStyle=orthogonalEdgeStyle;rounded=0;orthogonalLoop=1;jettySize=auto;html=1;" edge="1" parent="1" source="T_ZBZxhFnCgOZAEswiyo-2" target="T_ZBZxhFnCgOZAEswiyo-6">
          <mxGeometry relative="1" as="geometry" />
        </mxCell>
        <mxCell id="T_ZBZxhFnCgOZAEswiyo-2" value="&lt;div style=&quot;text-align: justify; font-size: 14px;&quot;&gt;int sl0 = 7;&lt;/div&gt;&lt;div style=&quot;text-align: justify; font-size: 14px;&quot;&gt;string sl1 = &quot;раз&quot;;&lt;/div&gt;&lt;div style=&quot;text-align: justify; font-size: 14px;&quot;&gt;string sl2 = &quot;, &quot;;&lt;/div&gt;&lt;div style=&quot;text-align: justify; font-size: 14px;&quot;&gt;int sl3 = 1;&lt;/div&gt;&lt;div style=&quot;text-align: justify; font-size: 14px;&quot;&gt;string sl4 = &quot;от&quot;;&lt;/div&gt;&lt;div style=&quot;text-align: justify; font-size: 14px;&quot;&gt;&lt;br style=&quot;font-size: 14px;&quot;&gt;&lt;/div&gt;" style="shape=parallelogram;perimeter=parallelogramPerimeter;whiteSpace=wrap;html=1;fixedSize=1;align=center;labelPosition=center;verticalLabelPosition=middle;verticalAlign=bottom;fontFamily=Times New Roman;fontSize=14;" vertex="1" parent="1">
          <mxGeometry x="275" y="180" width="278" height="110" as="geometry" />
        </mxCell>
        <mxCell id="T_ZBZxhFnCgOZAEswiyo-12" value="" style="edgeStyle=orthogonalEdgeStyle;rounded=0;orthogonalLoop=1;jettySize=auto;html=1;exitX=0.501;exitY=0.883;exitDx=0;exitDy=0;exitPerimeter=0;" edge="1" parent="1" source="T_ZBZxhFnCgOZAEswiyo-6" target="T_ZBZxhFnCgOZAEswiyo-10">
          <mxGeometry relative="1" as="geometry" />
        </mxCell>
        <mxCell id="T_ZBZxhFnCgOZAEswiyo-6" value="&lt;div style=&quot;text-align: justify; font-size: 14px;&quot;&gt;&lt;span style=&quot;font-size: 14px;&quot;&gt;&lt;font style=&quot;font-size: 14px;&quot;&gt;Console.WriteLine(&quot;{0} {1} {4}мерь{2}{3} {1} {4}режь&quot;,&amp;nbsp;&lt;/font&gt;&lt;/span&gt;&lt;span style=&quot;background-color: initial;&quot;&gt;sl0, sl1, sl2, sl3, sl4);&lt;/span&gt;&lt;/div&gt;&lt;div style=&quot;text-align: justify; font-size: 14px;&quot;&gt;&lt;br style=&quot;font-size: 14px;&quot;&gt;&lt;/div&gt;" style="strokeWidth=2;html=1;shape=mxgraph.flowchart.document2;whiteSpace=wrap;size=0.25;fontFamily=Times New Roman;fontSize=14;spacing=2;" vertex="1" parent="1">
          <mxGeometry x="276" y="330" width="277" height="120" as="geometry" />
        </mxCell>
        <mxCell id="T_ZBZxhFnCgOZAEswiyo-10" value="Конец" style="ellipse;whiteSpace=wrap;html=1;fontFamily=Times New Roman;fontSize=14;" vertex="1" parent="1">
          <mxGeometry x="274.5" y="480" width="279" height="110" as="geometry" />
        </mxCell>
        <mxCell id="T_ZBZxhFnCgOZAEswiyo-13" value="1." style="text;html=1;align=center;verticalAlign=middle;resizable=0;points=[];autosize=1;strokeColor=none;fillColor=none;fontSize=14;fontFamily=Times New Roman;" vertex="1" parent="1">
          <mxGeometry x="280" y="30" width="30" height="30" as="geometry" />
        </mxCell>
        <mxCell id="T_ZBZxhFnCgOZAEswiyo-14" value="2." style="text;html=1;align=center;verticalAlign=middle;resizable=0;points=[];autosize=1;strokeColor=none;fillColor=none;fontSize=14;fontFamily=Times New Roman;" vertex="1" parent="1">
          <mxGeometry x="280" y="150" width="30" height="30" as="geometry" />
        </mxCell>
        <mxCell id="T_ZBZxhFnCgOZAEswiyo-15" value="3." style="text;html=1;align=center;verticalAlign=middle;resizable=0;points=[];autosize=1;strokeColor=none;fillColor=none;fontSize=14;fontFamily=Times New Roman;" vertex="1" parent="1">
          <mxGeometry x="280" y="300" width="30" height="30" as="geometry" />
        </mxCell>
        <mxCell id="T_ZBZxhFnCgOZAEswiyo-17" value="4." style="text;html=1;align=center;verticalAlign=middle;resizable=0;points=[];autosize=1;strokeColor=none;fillColor=none;fontSize=14;fontFamily=Times New Roman;" vertex="1" parent="1">
          <mxGeometry x="280" y="480" width="30" height="30" as="geometry" />
        </mxCell>
      </root>
    </mxGraphModel>
  </diagram>
</mxfile>
